<svg width="24" height="24" viewBox="0 0 24 24" fill="none" xmlns="http://www.w3.org/2000/svg">
  <path d="M13.0293 14.3364C13.0158 14.6023 12.7962 14.811 12.5299 14.811H11.4643C11.1981 14.811 10.9785 14.6023 10.965 14.3364L10.4909 5.02542C10.4763 4.73967 10.7041 4.5 10.9902 4.5H13.004C13.2902 4.5 13.5179 4.73967 13.5034 5.02543L13.0293 14.3364ZM10.3801 18.15C10.3801 17.562 10.5341 17.149 10.8421 16.911C11.1501 16.659 11.5351 16.533 11.9971 16.533C12.4171 16.533 12.7881 16.659 13.1101 16.911C13.4321 17.149 13.5931 17.562 13.5931 18.15C13.5931 18.724 13.4321 19.137 13.1101 19.389C12.7881 19.641 12.4171 19.767 11.9971 19.767C11.5351 19.767 11.1501 19.641 10.8421 19.389C10.5341 19.137 10.3801 18.724 10.3801 18.15Z" fill="currentColor"/>
</svg>
