<svg width="24" height="24" viewBox="0 0 24 24" fill="none" xmlns="http://www.w3.org/2000/svg">
  <path d="M10.4907 15.082C10.2146 15.082 9.9907 14.8581 9.9907 14.582V14.3144C9.9907 13.508 10.1422 12.8335 10.4452 12.2908C10.7641 11.748 11.3223 11.1743 12.1196 10.5695C12.6618 10.1818 13.0844 9.84067 13.3874 9.54604C13.7063 9.25141 13.9375 8.96453 14.0811 8.68541C14.2246 8.39078 14.2963 8.04962 14.2963 7.66195C14.2963 7.07269 14.0811 6.62299 13.6505 6.31285C13.2359 6.00272 12.6379 5.84765 11.8565 5.84765C11.1548 5.84765 10.4851 5.94844 9.84718 6.15003C9.35962 6.30412 8.87207 6.48991 8.38451 6.70741C8.1332 6.81952 7.83535 6.71812 7.7138 6.47124L7.07535 5.17437C6.95442 4.92873 7.05316 4.63061 7.30192 4.51624C7.90723 4.23795 8.54834 3.99945 9.22525 3.80074C10.0864 3.55263 11.0432 3.42857 12.0957 3.42857C13.6904 3.42857 14.9262 3.80849 15.8033 4.56833C16.6963 5.32817 17.1429 6.31285 17.1429 7.52239C17.1429 8.18919 17.0312 8.76294 16.808 9.24365C16.6007 9.70886 16.2897 10.1431 15.8751 10.5462C15.4605 10.9494 14.9502 11.3759 14.3442 11.8256C13.8498 12.1977 13.4671 12.5156 13.196 12.7792C12.9409 13.0428 12.7655 13.3065 12.6698 13.5701C12.59 13.8337 12.5502 14.1438 12.5502 14.5005V14.582C12.5502 14.8581 12.3263 15.082 12.0502 15.082H10.4907ZM9.53622 18.7804C9.53622 18.1291 9.71163 17.6716 10.0625 17.408C10.4292 17.1289 10.8678 16.9893 11.3781 16.9893C11.8724 16.9893 12.295 17.1289 12.6459 17.408C13.0126 17.6716 13.196 18.1291 13.196 18.7804C13.196 19.4162 13.0126 19.8736 12.6459 20.1527C12.295 20.4319 11.8724 20.5714 11.3781 20.5714C10.8678 20.5714 10.4292 20.4319 10.0625 20.1527C9.71163 19.8736 9.53622 19.4162 9.53622 18.7804Z" fill="currentColor"/>
</svg>
