<svg width="24" height="24" viewBox="0 0 24 24" fill="none" xmlns="http://www.w3.org/2000/svg">
  <path fill-rule="evenodd" clip-rule="evenodd" d="M14.8327 12.3536C14.6375 12.1583 14.6375 11.8417 14.8327 11.6464L18.8964 7.58272C19.0917 7.38746 19.0917 7.07088 18.8964 6.87562L17.1244 5.10355C16.9291 4.90829 16.6125 4.90829 16.4173 5.10355L12.3536 9.16728C12.1583 9.36254 11.8417 9.36254 11.6464 9.16728L7.58272 5.10355C7.38746 4.90829 7.07088 4.90829 6.87562 5.10355L5.10355 6.87562C4.90829 7.07088 4.90829 7.38746 5.10355 7.58272L9.16728 11.6464C9.36254 11.8417 9.36254 12.1583 9.16728 12.3536L5.10355 16.4173C4.90829 16.6125 4.90829 16.9291 5.10355 17.1244L6.87562 18.8964C7.07088 19.0917 7.38746 19.0917 7.58272 18.8964L11.6464 14.8327C11.8417 14.6375 12.1583 14.6375 12.3536 14.8327L16.4173 18.8964C16.6125 19.0917 16.9291 19.0917 17.1244 18.8964L18.8964 17.1244C19.0917 16.9291 19.0917 16.6125 18.8964 16.4173L14.8327 12.3536Z" fill="currentColor"/>
</svg>
