<svg width="24" height="24" viewBox="0 0 24 24" fill="none" xmlns="http://www.w3.org/2000/svg">
  <path d="M13.1148 6.33734C13.1148 6.83841 12.9412 7.23508 12.5941 7.52737C12.2469 7.81966 11.8319 7.9658 11.3489 7.9658C10.8659 7.9658 10.4508 7.81966 10.1036 7.52737C9.77159 7.23508 9.60556 6.83841 9.60556 6.33734C9.60556 5.82236 9.77159 5.41872 10.1036 5.12643C10.4508 4.83415 10.8659 4.688 11.3489 4.688C11.8319 4.688 12.2469 4.83415 12.5941 5.12643C12.9412 5.41872 13.1148 5.82236 13.1148 6.33734ZM17.1902 19.0078C17.23 19.235 17.1098 19.4616 16.8944 19.5442C16.4535 19.7131 16.0314 19.8304 15.6279 19.896C15.1298 19.9935 14.6695 20.0422 14.2468 20.0422C13.5223 20.0422 12.9111 19.9447 12.413 19.7499C11.93 19.555 11.5375 19.2767 11.2357 18.9148C10.9489 18.539 10.7451 18.0866 10.6244 17.5577C10.5036 17.0288 10.4433 16.4234 10.4433 15.7414V12.6295C10.4433 12.3534 10.2194 12.1295 9.94326 12.1295H8.00001C7.72387 12.1295 7.50001 11.9057 7.50001 11.6295V10.5C7.50001 10.2239 7.72387 10 8.00001 10H12.728C13.0042 10 13.228 10.2239 13.228 10.5V16.0754C13.228 16.66 13.3412 17.0984 13.5676 17.3907C13.8091 17.6691 14.2016 17.8083 14.7449 17.8083C15.0015 17.8083 15.3109 17.7804 15.6732 17.7247C15.8706 17.6868 16.0814 17.6303 16.3056 17.5552C16.6117 17.4527 16.9492 17.6331 17.0049 17.951L17.1902 19.0078Z" fill="currentColor"/>
</svg>
