<svg width="24" height="24" viewBox="0 0 24 24" fill="none" xmlns="http://www.w3.org/2000/svg">
  <path fill-rule="evenodd" clip-rule="evenodd" d="M13.9867 15.9867C12.9792 16.6283 11.783 17 10.5 17C6.91015 17 4 14.0899 4 10.5C4 6.91015 6.91015 4 10.5 4C14.0899 4 17 6.91015 17 10.5C17 11.8117 16.6115 13.0327 15.9432 14.0541L20.591 18.7019C20.7863 18.8972 20.7863 19.2137 20.591 19.409L19.3536 20.6464C19.1583 20.8417 18.8417 20.8417 18.6465 20.6464L13.9867 15.9867ZM14.25 10.5C14.25 12.5711 12.5711 14.25 10.5 14.25C8.42893 14.25 6.75 12.5711 6.75 10.5C6.75 8.42893 8.42893 6.75 10.5 6.75C12.5711 6.75 14.25 8.42893 14.25 10.5Z" fill="currentColor"/>
</svg>
